<svg width="3449" height="1202" viewBox="0 0 3449 1202" fill="none" xmlns="http://www.w3.org/2000/svg">
<g filter="url(#filter0_d)">
<path d="M687.177 306.086L1321.41 306.087L983.903 891.273L305.906 891.273L687.177 306.086Z" fill="#E3EAFF"/>
</g>
<path d="M848.762 387.756L1279.8 387.756L1050.42 785.458L589.644 785.458L848.762 387.756Z" fill="white"/>
<path d="M415.04 779.913H1833.74L1779.17 889.044H415.04V779.913Z" fill="#E3EAFF"/>
<path d="M951.599 527.234V664.348H937.692V554.657L883.825 646.915H876.97L823.104 555.244V664.348H809.196V527.234H821.145L880.691 628.894L939.65 527.234H951.599ZM1114.94 627.719H1038.55L1022.09 664.348H1007.01L1069.69 527.234H1083.99L1146.67 664.348H1131.39L1114.94 627.719ZM1109.65 615.966L1076.74 542.316L1043.84 615.966H1109.65ZM1316.92 527.234V664.348H1302.62V601.079H1216.82V664.348H1202.33V527.234H1216.82V588.347H1302.62V527.234H1316.92ZM1452.52 665.523C1438.94 665.523 1426.66 662.519 1415.69 656.513C1404.86 650.506 1396.3 642.214 1390.03 631.636C1383.9 620.928 1380.83 608.98 1380.83 595.791C1380.83 582.602 1383.9 570.719 1390.03 560.141C1396.3 549.433 1404.92 541.076 1415.89 535.069C1426.86 529.062 1439.13 526.059 1452.71 526.059C1462.9 526.059 1472.3 527.756 1480.92 531.151C1489.54 534.547 1496.85 539.509 1502.86 546.038L1493.65 555.244C1482.94 544.406 1469.43 538.987 1453.11 538.987C1442.27 538.987 1432.41 541.468 1423.53 546.43C1414.65 551.392 1407.66 558.182 1402.57 566.801C1397.61 575.42 1395.13 585.083 1395.13 595.791C1395.13 606.499 1397.61 616.162 1402.57 624.781C1407.66 633.399 1414.65 640.19 1423.53 645.152C1432.41 650.114 1442.27 652.595 1453.11 652.595C1469.56 652.595 1483.08 647.111 1493.65 636.141L1502.86 645.348C1496.85 651.877 1489.47 656.904 1480.72 660.43C1472.11 663.825 1462.7 665.523 1452.52 665.523ZM1646.48 627.719H1570.09L1553.64 664.348H1538.56L1601.24 527.234H1615.54L1678.22 664.348H1662.94L1646.48 627.719ZM1641.2 615.966L1608.29 542.316L1575.38 615.966H1641.2ZM1785.19 527.234C1802.69 527.234 1816.4 531.413 1826.33 539.77C1836.25 548.127 1841.21 559.619 1841.21 574.244C1841.21 588.87 1836.25 600.361 1826.33 608.719C1816.4 616.945 1802.69 621.059 1785.19 621.059H1748.37V664.348H1733.87V527.234H1785.19ZM1784.8 608.327C1798.38 608.327 1808.76 605.389 1815.94 599.512C1823.13 593.506 1826.72 585.083 1826.72 574.244C1826.72 563.145 1823.13 554.657 1815.94 548.78C1808.76 542.773 1798.38 539.77 1784.8 539.77H1748.37V608.327H1784.8ZM2021.38 651.812V695.1H2007.87V664.348H1888.18L1887.99 695.1H1874.47L1874.67 651.812H1881.53C1890.54 651.289 1896.8 644.172 1900.33 630.461C1903.86 616.619 1906.01 597.031 1906.79 571.698L1908.36 527.234H2000.81V651.812H2021.38ZM1919.72 573.069C1919.07 593.963 1917.44 611.2 1914.82 624.781C1912.34 638.231 1908.1 647.241 1902.09 651.812H1986.51V539.77H1920.9L1919.72 573.069ZM2194.92 527.234V664.348H2180.62V601.079H2094.82V664.348H2080.33V527.234H2094.82V588.347H2180.62V527.234H2194.92ZM2327.97 576.203C2344.17 576.203 2356.51 579.859 2364.99 587.172C2373.61 594.485 2377.92 605.193 2377.92 619.296C2377.92 634.052 2373.35 645.282 2364.21 652.987C2355.2 660.561 2342.14 664.348 2325.04 664.348H2270.58V527.234H2284.88V576.203H2327.97ZM2324.64 652.791C2337.31 652.791 2346.91 649.983 2353.44 644.368C2360.1 638.753 2363.43 630.461 2363.43 619.492C2363.43 598.468 2350.5 587.956 2324.64 587.956H2284.88V652.791H2324.64ZM2401.62 527.234H2415.92V664.348H2401.62V527.234ZM2588.4 651.812V664.348H2491.44V527.234H2585.46V539.77H2505.94V588.543H2576.84V600.884H2505.94V651.812H2588.4ZM2790.72 665.523C2777.14 665.523 2764.8 662.519 2753.7 656.513C2742.73 650.375 2734.11 642.018 2727.84 631.44C2721.71 620.863 2718.64 608.98 2718.64 595.791C2718.64 582.602 2721.71 570.719 2727.84 560.141C2734.11 549.564 2742.73 541.272 2753.7 535.265C2764.8 529.127 2777.14 526.059 2790.72 526.059C2804.3 526.059 2816.51 529.062 2827.35 535.069C2838.32 541.076 2846.94 549.433 2853.21 560.141C2859.47 570.719 2862.61 582.602 2862.61 595.791C2862.61 608.98 2859.47 620.928 2853.21 631.636C2846.94 642.214 2838.32 650.506 2827.35 656.513C2816.51 662.519 2804.3 665.523 2790.72 665.523ZM2790.72 652.595C2801.56 652.595 2811.35 650.179 2820.1 645.348C2828.85 640.385 2835.71 633.595 2840.67 624.976C2845.63 616.227 2848.11 606.499 2848.11 595.791C2848.11 585.083 2845.63 575.42 2840.67 566.801C2835.71 558.052 2828.85 551.261 2820.1 546.43C2811.35 541.468 2801.56 538.987 2790.72 538.987C2779.88 538.987 2770.02 541.468 2761.14 546.43C2752.39 551.261 2745.47 558.052 2740.38 566.801C2735.42 575.42 2732.94 585.083 2732.94 595.791C2732.94 606.499 2735.42 616.227 2740.38 624.976C2745.47 633.595 2752.39 640.385 2761.14 645.348C2770.02 650.179 2779.88 652.595 2790.72 652.595ZM2972.02 601.471H2940.68V664.348H2926.58V527.234H2940.68V588.739H2972.02L3018.44 527.234H3034.11L2983.19 593.832L3037.05 664.348H3020.4L2972.02 601.471ZM3203.3 527.234V664.348H3189V601.079H3103.21V664.348H3088.71V527.234H3103.21V588.347H3189V527.234H3203.3ZM3366.72 627.719H3290.33L3273.87 664.348H3258.79L3321.47 527.234H3335.77L3398.45 664.348H3383.17L3366.72 627.719ZM3361.43 615.966L3328.52 542.316L3295.61 615.966H3361.43Z" fill="black"/>
<path d="M1578.24 431.13L1530.54 363.205C1524.64 363.627 1520.01 363.837 1516.64 363.837H1461.98V431.13H1430.39V209.979H1516.64C1545.28 209.979 1567.82 216.824 1584.24 230.515C1600.67 244.205 1608.89 263.055 1608.89 287.066C1608.89 304.126 1604.67 318.659 1596.25 330.665C1587.83 342.67 1575.82 351.411 1560.23 356.887L1612.68 431.13H1578.24ZM1515.69 336.983C1535.7 336.983 1550.97 332.665 1561.5 324.03C1572.03 315.395 1577.29 303.073 1577.29 287.066C1577.29 271.059 1572.03 258.843 1561.5 250.418C1550.97 241.783 1535.7 237.465 1515.69 237.465H1461.98V336.983H1515.69ZM2024.2 403.644V431.13H1863.7V209.979H2019.77V237.465H1895.3V305.39H2006.19V332.244H1895.3V403.644H2024.2ZM2469.32 209.979V431.13H2437.73V332.56H2310.72V431.13H2279.13V209.979H2310.72V305.074H2437.73V209.979H2469.32ZM2880.19 375.843H2762.67L2738.34 431.13H2705.8L2805.95 209.979H2837.23L2937.69 431.13H2904.52L2880.19 375.843ZM2869.14 350.568L2821.43 242.204L2773.72 350.568H2869.14ZM3261.45 433.658C3231.96 433.658 3209 425.233 3192.58 408.383C3176.15 391.534 3167.93 367.312 3167.93 335.719V209.979H3199.53V334.456C3199.53 381.845 3220.27 405.54 3261.76 405.54C3281.98 405.54 3297.46 399.748 3308.21 388.164C3318.95 376.369 3324.32 358.466 3324.32 334.456V209.979H3354.96V335.719C3354.96 367.523 3346.75 391.85 3330.32 408.699C3313.89 425.338 3290.94 433.658 3261.45 433.658Z" fill="black"/>
<defs>
<filter id="filter0_d" x="0.341042" y="0.521217" width="1452.03" height="1021.71" filterUnits="userSpaceOnUse" color-interpolation-filters="sRGB">
<feFlood flood-opacity="0" result="BackgroundImageFix"/>
<feColorMatrix in="SourceAlpha" type="matrix" values="0 0 0 0 0 0 0 0 0 0 0 0 0 0 0 0 0 0 127 0"/>
<feOffset dx="-87.3043" dy="-87.3043"/>
<feGaussianBlur stdDeviation="109.13"/>
<feColorMatrix type="matrix" values="0 0 0 0 0 0 0 0 0 0 0 0 0 0 0 0 0 0 0.1 0"/>
<feBlend mode="normal" in2="BackgroundImageFix" result="effect1_dropShadow"/>
<feBlend mode="normal" in="SourceGraphic" in2="effect1_dropShadow" result="shape"/>
</filter>
</defs>
</svg>
