<svg xmlns="http://www.w3.org/2000/svg" viewBox="0 0 112.79 8.68"><defs><style>.cls-1{fill:#231f20;}</style></defs><title>Logo</title><g id="Layer_2" data-name="Layer 2"><g id="Layer_1-2" data-name="Layer 1"><path class="cls-1" d="M2.25.14H4.91c1.88,0,3.17.79,3.17,2.48,0,2-1.73,3.19-4.1,3.19H2.22L1.49,8.54H0ZM4,4.51c1.54,0,2.5-.65,2.5-1.76,0-.79-.6-1.26-1.68-1.26H3.37l-.8,3Z"/><path class="cls-1" d="M8.89,5.9a5.24,5.24,0,0,1,.19-1.33L10.26.14h1.47L10.5,4.77a3.58,3.58,0,0,0-.12.92,1.56,1.56,0,0,0,1.76,1.62c1.19,0,2.06-.78,2.49-2.4L15.92.14h1.48l-1.34,5c-.62,2.3-1.91,3.53-4.05,3.53C10,8.67,8.89,7.6,8.89,5.9Z"/><path class="cls-1" d="M19.49.14H21l1.46,4,3.6-4h1.69l-2.25,8.4H24l1.62-6-3.69,4h0L20.31,2.54l-1.61,6H17.23Z"/><path class="cls-1" d="M29.9.14h2.65c1.88,0,3.17.79,3.17,2.48,0,2-1.73,3.19-4.1,3.19H29.87l-.73,2.72H27.65Zm1.79,4.37c1.54,0,2.49-.65,2.49-1.76,0-.79-.6-1.26-1.68-1.26H31l-.8,3Z"/><path class="cls-1" d="M38,.14h1.49L38.34,4.39,43.25.14h2L41,3.73l2.15,4.81H41.53L39.84,4.61l-2,1.7-.59,2.23H35.74Z"/><path class="cls-1" d="M46.75.14h1.49L46,8.54H44.5Z"/><path class="cls-1" d="M50.47.14h1.37l2.84,5.94L56.29.14h1.45l-2.25,8.4H54.25l-2.94-6.1-1.63,6.1H48.21Z"/><path class="cls-1" d="M63.5.14H65l-.94,3.49H68L68.93.14h1.48l-2.25,8.4H66.68L67.63,5H63.68l-.95,3.54H61.25Z"/><path class="cls-1" d="M71,5a5,5,0,0,1,5-5,3.6,3.6,0,0,1,3.78,3.68,5,5,0,0,1-5,5A3.59,3.59,0,0,1,71,5Zm7.22-1.24a2.27,2.27,0,0,0-2.39-2.41,3.52,3.52,0,0,0-3.3,3.56,2.26,2.26,0,0,0,2.39,2.41A3.52,3.52,0,0,0,78.22,3.77Z"/><path class="cls-1" d="M81.15,5.9a5.28,5.28,0,0,1,.19-1.33L82.52.14H84L82.76,4.77a3.58,3.58,0,0,0-.12.92A1.56,1.56,0,0,0,84.4,7.32c1.19,0,2.06-.78,2.5-2.4L88.18.14h1.47l-1.34,5c-.62,2.3-1.91,3.53-4.05,3.53C82.29,8.67,81.15,7.6,81.15,5.9Z"/><path class="cls-1" d="M89.25,7.09l1.12-.92A3.14,3.14,0,0,0,92.9,7.35c.94,0,1.62-.47,1.62-1.16,0-.5-.35-.8-1.55-1.27s-2.16-1.09-2.16-2.25C90.81,1.08,92.24,0,94,0a4,4,0,0,1,3.08,1.26l-1,1a2.91,2.91,0,0,0-2.16-1c-1,0-1.56.54-1.56,1.1s.42.8,1.63,1.28S96.09,4.81,96.09,6c0,1.64-1.5,2.69-3.27,2.69A4.23,4.23,0,0,1,89.25,7.09Z"/><path class="cls-1" d="M99.39.14h6.17l7.24,4.26H110l-5.21-2.94h-4.27l-.59,2.19h4.16L103.72,5H99.56L99,7.22h4.76L110,4.41h2.81l-8.56,4.13H97.14Z"/></g></g></svg>