<?xml version="1.0" encoding="utf-8"?>
<!-- Generator: Adobe Illustrator 19.0.0, SVG Export Plug-In . SVG Version: 6.00 Build 0)  -->
<svg version="1.1" id="Layer_1" xmlns="http://www.w3.org/2000/svg" xmlns:xlink="http://www.w3.org/1999/xlink" x="0px" y="0px"
	 viewBox="0 0 321 139.4" style="enable-background:new 0 0 321 139.4;" xml:space="preserve">
<style type="text/css">
	.st0{fill:#2B3133;}
	.st1{fill:#757575;}
	.st2{fill:#BCBCBC;}
	.st3{fill:#0E6FAA;}
	.st4{fill:#99A7BC;}
	.st5{fill:#50BCDA;}
	.st6{opacity:0.9;}
</style>
<path id="XMLID_165_" class="st0" d="M-246.7,50.4h27.3v8.2h-18.4V66h17.4v8.2h-17.4v8.2h19.4v8.2h-28.3V50.4z"/>
<path id="XMLID_163_" class="st0" d="M-204.3,50.4h12l17.1,27.9h0.1V50.4h8.8v40.1h-11.6l-17.5-28.6h-0.1v28.6h-8.8V50.4z"/>
<path id="XMLID_160_" class="st0" d="M-155.3,70.4c0-3.2,0.5-6.1,1.6-8.7c1.1-2.6,2.6-4.8,4.5-6.7c1.9-1.8,4.2-3.2,6.9-4.2
	c2.6-1,5.5-1.5,8.7-1.5c3.1,0,6,0.5,8.7,1.5c2.6,1,4.9,2.4,6.9,4.2c1.9,1.8,3.4,4.1,4.5,6.7c1.1,2.6,1.6,5.5,1.6,8.7
	c0,3.2-0.5,6.1-1.6,8.7c-1.1,2.6-2.6,4.8-4.5,6.7c-1.9,1.8-4.2,3.2-6.9,4.2c-2.6,1-5.5,1.5-8.7,1.5c-3.1,0-6-0.5-8.7-1.5
	c-2.6-1-4.9-2.4-6.9-4.2c-1.9-1.8-3.4-4.1-4.5-6.7C-154.8,76.5-155.3,73.6-155.3,70.4z M-146.2,70.4c0,1.9,0.3,3.6,0.9,5.2
	c0.6,1.6,1.4,2.9,2.5,4.1c1.1,1.2,2.4,2.1,3.9,2.7c1.5,0.6,3.2,1,5.1,1c1.9,0,3.6-0.3,5.1-1c1.5-0.6,2.8-1.5,3.9-2.7
	c1.1-1.2,1.9-2.5,2.5-4.1c0.6-1.6,0.9-3.3,0.9-5.2c0-1.9-0.3-3.6-0.9-5.2c-0.6-1.6-1.4-3-2.5-4.1c-1.1-1.2-2.4-2.1-3.9-2.7
	c-1.5-0.6-3.2-1-5.1-1c-1.9,0-3.6,0.3-5.1,1c-1.5,0.6-2.8,1.5-3.9,2.7c-1.1,1.2-1.9,2.5-2.5,4.1C-145.9,66.9-146.2,68.6-146.2,70.4z
	"/>
<path id="XMLID_158_" class="st0" d="M-93.3,58.2h-11.5v-7.8H-73v7.8h-11.5v32.3h-8.8V58.2z"/>
<path id="XMLID_155_" class="st0" d="M-292.8,62.1l-4,4c1.5,1.5,2.5,3.7,2.5,6c0,4.7-3.8,8.5-8.5,8.5c-1.2,0-2.4-0.3-3.4-0.7
	l-2.3,5.2c1.7,0.8,3.7,1.2,5.7,1.2c7.8,0,14.2-6.3,14.2-14.2C-288.6,68.2-290.2,64.7-292.8,62.1z"/>
<path id="XMLID_153_" class="st1" d="M-302.8,86.3c-7.8,0-14.2-6.3-14.2-14.2s6.3-14.2,14.2-14.2v-5.7c-11,0-19.8,8.9-19.8,19.8
	s8.9,19.8,19.8,19.8V86.3z"/>
<path id="XMLID_152_" class="st2" d="M-321.4,65.3c2.8-7.6,10.1-13,18.6-13c11,0,19.8,8.9,19.8,19.8c0,2.3-0.4,4.5-1.1,6.5l5.4,1.9
	c0.9-2.6,1.4-5.5,1.4-8.4c0-14.1-11.4-25.5-25.5-25.5c-11,0-20.4,7-24,16.8L-321.4,65.3z"/>
<path id="XMLID_151_" class="st0" d="M-284.6,90.1c-4.6,4.7-11,7.6-18.1,7.6c-14.1,0-25.5-11.4-25.5-25.5h-5.7
	c0,17.2,14,31.2,31.2,31.2c8.7,0,16.5-3.5,22.2-9.3L-284.6,90.1z"/>
<path id="XMLID_150_" class="st1" d="M-302.8,35.3V41c17.2,0,31.2,14,31.2,31.2s-14,31.2-31.2,31.2v5.7c20.4,0,36.9-16.5,36.9-36.9
	S-282.4,35.3-302.8,35.3z"/>
<path id="XMLID_149_" class="st2" d="M-323.7,41.8c5.9-4.1,13.2-6.5,20.9-6.5v-5.7c-9,0-17.3,2.8-24.2,7.5L-323.7,41.8z"/>
<path id="XMLID_673_" class="st0" d="M508.3,280.7h27.3v8.2h-18.4v7.5h17.4v8.2h-17.4v8.2h19.4v8.2h-28.3V280.7z"/>
<path id="XMLID_671_" class="st0" d="M550.6,280.7h12l17.1,27.9h0.1v-27.9h8.8v40.1h-11.6l-17.5-28.6h-0.1v28.6h-8.8V280.7z"/>
<path id="XMLID_668_" class="st0" d="M599.6,300.8c0-3.2,0.5-6.1,1.6-8.7c1.1-2.6,2.6-4.8,4.5-6.7c1.9-1.8,4.2-3.2,6.9-4.2
	c2.6-1,5.5-1.5,8.7-1.5c3.1,0,6,0.5,8.7,1.5c2.6,1,4.9,2.4,6.9,4.2c1.9,1.8,3.4,4.1,4.5,6.7c1.1,2.6,1.6,5.5,1.6,8.7
	c0,3.2-0.5,6.1-1.6,8.7c-1.1,2.6-2.6,4.8-4.5,6.7c-1.9,1.8-4.2,3.2-6.9,4.2c-2.6,1-5.5,1.5-8.7,1.5c-3.1,0-6-0.5-8.7-1.5
	c-2.6-1-4.9-2.4-6.9-4.2c-1.9-1.8-3.4-4.1-4.5-6.7C600.1,306.9,599.6,304,599.6,300.8z M608.8,300.8c0,1.9,0.3,3.6,0.9,5.2
	c0.6,1.6,1.4,2.9,2.5,4.1c1.1,1.2,2.4,2.1,3.9,2.7c1.5,0.6,3.2,1,5.1,1c1.9,0,3.6-0.3,5.1-1c1.5-0.6,2.8-1.5,3.9-2.7
	c1.1-1.2,1.9-2.5,2.5-4.1c0.6-1.6,0.9-3.3,0.9-5.2c0-1.9-0.3-3.6-0.9-5.2c-0.6-1.6-1.4-3-2.5-4.1c-1.1-1.2-2.4-2.1-3.9-2.7
	c-1.5-0.6-3.2-1-5.1-1c-1.9,0-3.6,0.3-5.1,1c-1.5,0.6-2.8,1.5-3.9,2.7c-1.1,1.2-1.9,2.5-2.5,4.1
	C609.1,297.2,608.8,298.9,608.8,300.8z"/>
<path id="XMLID_666_" class="st0" d="M661.6,288.5h-11.5v-7.8h31.8v7.8h-11.5v32.3h-8.8V288.5z"/>
<path id="XMLID_665_" class="st0" d="M462.2,292.5l-4,4c1.5,1.5,2.5,3.7,2.5,6c0,4.7-3.8,8.5-8.5,8.5c-1.2,0-2.4-0.3-3.4-0.7
	l-2.3,5.2c1.7,0.8,3.7,1.2,5.7,1.2c7.8,0,14.2-6.3,14.2-14.2C466.3,298.6,464.7,295.1,462.2,292.5z"/>
<path id="XMLID_664_" class="st1" d="M452.1,316.7c-7.8,0-14.2-6.3-14.2-14.2s6.3-14.2,14.2-14.2v-5.7c-11,0-19.8,8.9-19.8,19.8
	s8.9,19.8,19.8,19.8V316.7z"/>
<path id="XMLID_663_" class="st2" d="M433.5,295.7c2.8-7.6,10.1-13,18.6-13c11,0,19.8,8.9,19.8,19.8c0,2.3-0.4,4.5-1.1,6.5l5.4,1.9
	c0.9-2.6,1.4-5.5,1.4-8.4c0-14.1-11.4-25.5-25.5-25.5c-11,0-20.4,7-24,16.8L433.5,295.7z"/>
<path id="XMLID_662_" class="st0" d="M470.3,320.5c-4.6,4.7-11,7.6-18.1,7.6c-14.1,0-25.5-11.4-25.5-25.5H421
	c0,17.2,14,31.2,31.2,31.2c8.7,0,16.5-3.5,22.2-9.3L470.3,320.5z"/>
<path id="XMLID_661_" class="st1" d="M452.1,265.7v5.7c17.2,0,31.2,14,31.2,31.2s-14,31.2-31.2,31.2v5.7c20.4,0,36.9-16.5,36.9-36.9
	S472.5,265.7,452.1,265.7z"/>
<path id="XMLID_660_" class="st2" d="M431.2,272.2c5.9-4.1,13.2-6.5,20.9-6.5V260c-9,0-17.3,2.8-24.2,7.5L431.2,272.2z"/>
<path id="XMLID_129_" class="st0" d="M-246.7,228.1h27.3v8.2h-18.4v7.5h17.4v8.2h-17.4v8.2h19.4v8.2h-28.3V228.1z"/>
<path id="XMLID_127_" class="st0" d="M-204.4,228.1h12l17.1,27.9h0.1v-27.9h8.8v40.1h-11.6l-17.5-28.6h-0.1v28.6h-8.8V228.1z"/>
<path id="XMLID_124_" class="st0" d="M-155.4,248.2c0-3.2,0.5-6.1,1.6-8.7c1.1-2.6,2.6-4.8,4.5-6.7c1.9-1.8,4.2-3.2,6.9-4.2
	c2.6-1,5.5-1.5,8.7-1.5c3.1,0,6,0.5,8.7,1.5c2.6,1,4.9,2.4,6.9,4.2c1.9,1.8,3.4,4.1,4.5,6.7c1.1,2.6,1.6,5.5,1.6,8.7
	c0,3.2-0.5,6.1-1.6,8.7c-1.1,2.6-2.6,4.8-4.5,6.7c-1.9,1.8-4.2,3.2-6.9,4.2c-2.6,1-5.5,1.5-8.7,1.5c-3.1,0-6-0.5-8.7-1.5
	c-2.6-1-4.9-2.4-6.9-4.2c-1.9-1.8-3.4-4.1-4.5-6.7C-154.9,254.3-155.4,251.4-155.4,248.2z M-146.2,248.2c0,1.9,0.3,3.6,0.9,5.2
	c0.6,1.6,1.4,2.9,2.5,4.1c1.1,1.2,2.4,2.1,3.9,2.7c1.5,0.6,3.2,1,5.1,1c1.9,0,3.6-0.3,5.1-1c1.5-0.6,2.8-1.5,3.9-2.7
	c1.1-1.2,1.9-2.5,2.5-4.1c0.6-1.6,0.9-3.3,0.9-5.2c0-1.9-0.3-3.6-0.9-5.2s-1.4-3-2.5-4.1c-1.1-1.2-2.4-2.1-3.9-2.7
	c-1.5-0.6-3.2-1-5.1-1c-1.9,0-3.6,0.3-5.1,1c-1.5,0.6-2.8,1.5-3.9,2.7c-1.1,1.2-1.9,2.5-2.5,4.1
	C-145.9,244.6-146.2,246.3-146.2,248.2z"/>
<path id="XMLID_122_" class="st0" d="M-93.4,235.9h-11.5v-7.8h31.8v7.8h-11.5v32.3h-8.8V235.9z"/>
<g id="XMLID_295_">
	<path id="XMLID_119_" class="st0" d="M-292.8,247.9l-4,4c1.5,1.5,2.5,3.7,2.5,6c0,4.7-3.8,8.5-8.5,8.5c-1.2,0-2.4-0.3-3.4-0.7
		l-2.3,5.2c1.7,0.8,3.7,1.2,5.7,1.2c7.8,0,14.2-6.3,14.2-14.2C-288.7,254-290.3,250.4-292.8,247.9z"/>
	<path id="XMLID_117_" class="st1" d="M-302.9,272.1c-7.8,0-14.2-6.3-14.2-14.2s6.3-14.2,14.2-14.2V238c-11,0-19.8,8.9-19.8,19.8
		s8.9,19.8,19.8,19.8V272.1z"/>
	<path id="XMLID_116_" class="st2" d="M-321.5,251.1c2.8-7.6,10.1-13,18.6-13c11,0,19.8,8.9,19.8,19.8c0,2.3-0.4,4.5-1.1,6.5
		l5.4,1.9c0.9-2.6,1.4-5.5,1.4-8.4c0-14.1-11.4-25.5-25.5-25.5c-11,0-20.4,7-24,16.8L-321.5,251.1z"/>
	<path id="XMLID_114_" class="st0" d="M-284.7,275.8c-4.6,4.7-11,7.6-18.1,7.6c-14.1,0-25.5-11.4-25.5-25.5h-5.7
		c0,17.2,14,31.2,31.2,31.2c8.7,0,16.5-3.5,22.2-9.3L-284.7,275.8z"/>
	<path id="XMLID_111_" class="st1" d="M-302.9,221v5.7c17.2,0,31.2,14,31.2,31.2s-14,31.2-31.2,31.2v5.7c20.4,0,36.9-16.5,36.9-36.9
		S-282.5,221-302.9,221z"/>
	<path id="XMLID_102_" class="st2" d="M-323.8,227.6c5.9-4.1,13.2-6.5,20.9-6.5v-5.7c-9,0-17.3,2.8-24.2,7.5L-323.8,227.6z"/>
</g>
<g id="XMLID_11_">
	<path id="XMLID_86_" class="st2" d="M-240.6,281.2c0,1-0.3,1.7-0.9,2.2c-0.6,0.5-1.5,0.8-2.7,0.8h-1v3.4h-1.5v-9.2h2.7
		c1.2,0,2,0.2,2.6,0.7C-240.9,279.5-240.6,280.2-240.6,281.2z M-245.2,282.9h0.8c0.8,0,1.3-0.1,1.7-0.4c0.4-0.3,0.5-0.7,0.5-1.3
		c0-0.5-0.2-0.9-0.5-1.2c-0.3-0.3-0.8-0.4-1.5-0.4h-1V282.9z"/>
	<path id="XMLID_83_" class="st2" d="M-231.2,287.6l-0.9-2.6h-3.5l-0.9,2.6h-1.6l3.5-9.3h1.6l3.4,9.3H-231.2z M-232.6,283.7
		l-0.9-2.5c-0.1-0.2-0.1-0.4-0.3-0.8c-0.1-0.4-0.2-0.6-0.2-0.8c-0.1,0.5-0.3,1.1-0.5,1.7l-0.8,2.4H-232.6z"/>
	<path id="XMLID_79_" class="st2" d="M-220.4,284.8c0,1.8-1.2,2.8-3.6,2.8h-2.7v-9.2h5.6v1.3h-4.1v2.5h1.1
		C-221.6,282.1-220.4,283-220.4,284.8z M-225.1,286.3h1.1c0.7,0,1.3-0.1,1.6-0.4c0.3-0.2,0.5-0.6,0.5-1.2c0-0.5-0.2-0.9-0.5-1.1
		c-0.3-0.2-0.9-0.3-1.8-0.3h-0.9V286.3z"/>
	<path id="XMLID_76_" class="st2" d="M-208.6,283c0,1.5-0.4,2.7-1.1,3.5c-0.7,0.8-1.8,1.2-3.2,1.2c-1.4,0-2.5-0.4-3.2-1.2
		c-0.7-0.8-1.1-2-1.1-3.5c0-1.5,0.4-2.7,1.1-3.5c0.7-0.8,1.8-1.2,3.2-1.2c1.4,0,2.4,0.4,3.2,1.2C-208.9,280.3-208.6,281.5-208.6,283
		z M-215.6,283c0,1.1,0.2,2,0.7,2.6c0.5,0.6,1.1,0.9,2,0.9c0.9,0,1.6-0.3,2-0.9c0.5-0.6,0.7-1.4,0.7-2.6c0-1.1-0.2-2-0.7-2.6
		c-0.5-0.6-1.1-0.9-2-0.9c-0.9,0-1.6,0.3-2,0.9C-215.4,281-215.6,281.8-215.6,283z"/>
	<path id="XMLID_73_" class="st2" d="M-201.6,287.6h-1.5v-7.9h-2.7v-1.3h6.9v1.3h-2.7V287.6z"/>
	<path id="XMLID_70_" class="st2" d="M-189.9,287.6l-0.9-2.6h-3.5l-0.9,2.6h-1.6l3.5-9.3h1.6l3.4,9.3H-189.9z M-191.2,283.7
		l-0.9-2.5c-0.1-0.2-0.2-0.4-0.3-0.8s-0.2-0.6-0.2-0.8c-0.1,0.5-0.3,1.1-0.5,1.7l-0.8,2.4H-191.2z"/>
	<path id="XMLID_51_" class="st2" d="M-185.3,278.4h1.4v4.8c0,0.5,0,1,0,1.5c0,0.5,0,0.9-0.1,1h0.1l4.7-7.3h1.8v9.2h-1.4v-4.8
		c0-0.7,0-1.6,0.1-2.6h-0.1l-4.7,7.4h-1.8V278.4z M-181.3,277.6c-0.9,0-1.5-0.2-2-0.5c-0.4-0.3-0.6-0.9-0.7-1.6h1.3
		c0,0.3,0.1,0.5,0.2,0.7c0.1,0.2,0.2,0.3,0.4,0.4c0.2,0.1,0.4,0.1,0.8,0.1c0.4,0,0.7-0.1,0.9-0.3c0.2-0.2,0.3-0.5,0.4-0.9h1.4
		c-0.1,0.7-0.3,1.3-0.8,1.6C-179.8,277.5-180.5,277.6-181.3,277.6z"/>
	<path id="XMLID_49_" class="st2" d="M-161,287.6h-1.5v-7.9h-4.1v7.9h-1.5v-9.2h7.1V287.6z"/>
	<path id="XMLID_46_" class="st2" d="M-148.6,283c0,1.5-0.4,2.7-1.1,3.5c-0.7,0.8-1.8,1.2-3.2,1.2c-1.4,0-2.5-0.4-3.2-1.2
		c-0.7-0.8-1.1-2-1.1-3.5c0-1.5,0.4-2.7,1.1-3.5c0.7-0.8,1.8-1.2,3.2-1.2c1.4,0,2.4,0.4,3.2,1.2C-148.9,280.3-148.6,281.5-148.6,283
		z M-155.6,283c0,1.1,0.2,2,0.7,2.6c0.5,0.6,1.1,0.9,2,0.9c0.9,0,1.6-0.3,2-0.9c0.5-0.6,0.7-1.4,0.7-2.6c0-1.1-0.2-2-0.7-2.6
		c-0.5-0.6-1.1-0.9-2-0.9c-0.9,0-1.6,0.3-2,0.9C-155.4,281-155.6,281.8-155.6,283z"/>
	<path id="XMLID_32_" class="st2" d="M-145.5,284.8v-1.3h3.2v1.3H-145.5z"/>
	<path id="XMLID_30_" class="st2" d="M-131.5,287.6h-1.5v-4.2h-4.3v4.2h-1.5v-9.2h1.5v3.8h4.3v-3.8h1.5V287.6z"/>
	<path id="XMLID_27_" class="st2" d="M-119.1,283c0,1.5-0.4,2.7-1.1,3.5c-0.7,0.8-1.8,1.2-3.2,1.2c-1.4,0-2.5-0.4-3.2-1.2
		c-0.7-0.8-1.1-2-1.1-3.5c0-1.5,0.4-2.7,1.1-3.5c0.7-0.8,1.8-1.2,3.2-1.2c1.4,0,2.4,0.4,3.2,1.2C-119.5,280.3-119.1,281.5-119.1,283
		z M-126.2,283c0,1.1,0.2,2,0.7,2.6c0.5,0.6,1.1,0.9,2,0.9c0.9,0,1.6-0.3,2-0.9c0.5-0.6,0.7-1.4,0.7-2.6c0-1.1-0.2-2-0.7-2.6
		c-0.5-0.6-1.1-0.9-2-0.9c-0.9,0-1.6,0.3-2,0.9C-125.9,281-126.2,281.8-126.2,283z"/>
	<path id="XMLID_23_" class="st2" d="M-115.3,278.4h2.7c1.3,0,2.2,0.2,2.8,0.6s0.8,1,0.8,1.8c0,0.5-0.1,1-0.4,1.3
		c-0.3,0.4-0.7,0.6-1.2,0.7v0.1c0.6,0.1,1.1,0.4,1.4,0.7c0.3,0.4,0.5,0.8,0.5,1.5c0,0.8-0.3,1.5-0.9,1.9c-0.6,0.5-1.4,0.7-2.4,0.7
		h-3.3V278.4z M-113.8,282.2h1.5c0.6,0,1.1-0.1,1.4-0.3c0.3-0.2,0.4-0.5,0.4-1c0-0.4-0.2-0.7-0.5-0.9s-0.8-0.3-1.5-0.3h-1.3V282.2z
		 M-113.8,283.4v2.9h1.6c0.6,0,1.1-0.1,1.4-0.4c0.3-0.2,0.5-0.6,0.5-1.1c0-0.5-0.2-0.8-0.5-1.1c-0.3-0.2-0.8-0.3-1.5-0.3H-113.8z"/>
	<path id="XMLID_20_" class="st2" d="M-96.8,283c0,1.5-0.4,2.7-1.1,3.5c-0.7,0.8-1.8,1.2-3.2,1.2c-1.4,0-2.5-0.4-3.2-1.2
		c-0.7-0.8-1.1-2-1.1-3.5c0-1.5,0.4-2.7,1.1-3.5c0.7-0.8,1.8-1.2,3.2-1.2c1.4,0,2.4,0.4,3.2,1.2C-97.2,280.3-96.8,281.5-96.8,283z
		 M-103.8,283c0,1.1,0.2,2,0.7,2.6c0.5,0.6,1.1,0.9,2,0.9c0.9,0,1.6-0.3,2-0.9c0.5-0.6,0.7-1.4,0.7-2.6c0-1.1-0.2-2-0.7-2.6
		c-0.5-0.6-1.1-0.9-2-0.9c-0.9,0-1.6,0.3-2,0.9C-103.6,281-103.8,281.8-103.8,283z"/>
	<path id="XMLID_17_" class="st2" d="M-89,287.6l-2.7-7.7h-0.1c0.1,1.1,0.1,2.2,0.1,3.2v4.5H-93v-9.2h2.1l2.6,7.3h0l2.6-7.3h2.1v9.2
		H-85V283c0-0.5,0-1.1,0-1.8c0-0.7,0-1.2,0.1-1.3h-0.1l-2.8,7.7H-89z"/>
	<path id="XMLID_14_" class="st2" d="M-72.3,278.4l-2.9,6.6c-0.4,0.8-0.7,1.4-1,1.7c-0.3,0.4-0.6,0.6-1,0.8
		c-0.4,0.2-0.9,0.3-1.4,0.3c-0.5,0-0.9-0.1-1.4-0.2v-1.4c0.4,0.2,0.8,0.2,1.3,0.2c0.4,0,0.7-0.1,1-0.3c0.3-0.2,0.5-0.5,0.7-1
		l-3.4-6.8h1.6l2.3,4.6c0.2,0.4,0.3,0.7,0.4,0.9h0.1c0-0.1,0.1-0.3,0.2-0.5l2.1-5H-72.3z"/>
</g>
<g id="XMLID_44_">
	<path id="XMLID_2_" class="st0" d="M117.2,51.1h27.3v8.2H126v7.5h17.4v8.2H126V83h19.4v8.2h-28.3V51.1z"/>
	<path id="XMLID_18_" class="st0" d="M159.5,51.1h12L188.6,79h0.1V51.1h8.8v40.1H186l-17.5-28.6h-0.1v28.6h-8.8V51.1z"/>
	<path id="XMLID_15_" class="st0" d="M208.5,71.1c0-3.2,0.5-6.1,1.6-8.7c1.1-2.6,2.6-4.8,4.5-6.7c1.9-1.8,4.2-3.2,6.9-4.2
		c2.6-1,5.5-1.5,8.7-1.5c3.1,0,6,0.5,8.7,1.5c2.6,1,4.9,2.4,6.9,4.2c1.9,1.8,3.4,4.1,4.5,6.7c1.1,2.6,1.6,5.5,1.6,8.7
		c0,3.2-0.5,6.1-1.6,8.7c-1.1,2.6-2.6,4.8-4.5,6.7c-1.9,1.8-4.2,3.2-6.9,4.2c-2.6,1-5.5,1.5-8.7,1.5c-3.1,0-6-0.5-8.7-1.5
		c-2.6-1-4.9-2.4-6.9-4.2c-1.9-1.8-3.4-4.1-4.5-6.7C209,77.3,208.5,74.3,208.5,71.1z M217.7,71.1c0,1.9,0.3,3.6,0.9,5.2
		c0.6,1.6,1.4,2.9,2.5,4.1c1.1,1.2,2.4,2.1,3.9,2.7c1.5,0.6,3.2,1,5.1,1c1.9,0,3.6-0.3,5.1-1c1.5-0.6,2.8-1.5,3.9-2.7
		c1.1-1.2,1.9-2.5,2.5-4.1c0.6-1.6,0.9-3.3,0.9-5.2c0-1.9-0.3-3.6-0.9-5.2c-0.6-1.6-1.4-3-2.5-4.1c-1.1-1.2-2.4-2.1-3.9-2.7
		c-1.5-0.6-3.2-1-5.1-1c-1.9,0-3.6,0.3-5.1,1c-1.5,0.6-2.8,1.5-3.9,2.7c-1.1,1.2-1.9,2.5-2.5,4.1C218,67.6,217.7,69.3,217.7,71.1z"
		/>
	<path id="XMLID_3_" class="st0" d="M270.5,58.9h-11.5v-7.8h31.8v7.8h-11.5v32.3h-8.8V58.9z"/>
	<g id="XMLID_34_">
		<path id="XMLID_37_" class="st3" d="M71.1,62.8l-4,4c1.5,1.5,2.5,3.7,2.5,6c0,4.7-3.8,8.5-8.5,8.5c-1.2,0-2.4-0.3-3.4-0.7
			l-2.3,5.2c1.7,0.8,3.7,1.2,5.7,1.2c7.8,0,14.2-6.3,14.2-14.2C75.2,68.9,73.6,65.4,71.1,62.8z"/>
		<path id="XMLID_39_" class="st4" d="M61.1,87c-7.8,0-14.2-6.3-14.2-14.2s6.3-14.2,14.2-14.2V53c-11,0-19.8,8.9-19.8,19.8
			s8.9,19.8,19.8,19.8V87z"/>
		<path id="XMLID_40_" class="st5" d="M42.5,66c2.8-7.6,10.1-13,18.6-13c11,0,19.8,8.9,19.8,19.8c0,2.3-0.4,4.5-1.1,6.5l5.4,1.9
			c0.9-2.6,1.4-5.5,1.4-8.4c0-14.1-11.4-25.5-25.5-25.5c-11,0-20.4,7-24,16.8L42.5,66z"/>
		<path id="XMLID_41_" class="st3" d="M79.2,90.8c-4.6,4.7-11,7.6-18.1,7.6C47,98.4,35.6,87,35.6,72.9h-5.7
			c0,17.2,14,31.2,31.2,31.2c8.7,0,16.5-3.5,22.2-9.3L79.2,90.8z"/>
		<path id="XMLID_42_" class="st4" d="M61.1,36v5.7c17.2,0,31.2,14,31.2,31.2S78.3,104,61.1,104v5.7c20.4,0,36.9-16.5,36.9-36.9
			S81.4,36,61.1,36z"/>
		<path id="XMLID_43_" class="st5" d="M40.1,42.5c5.9-4.1,13.2-6.5,20.9-6.5v-5.7c-9,0-17.3,2.8-24.2,7.5L40.1,42.5z"/>
	</g>
</g>
<g id="XMLID_572_">
	<path id="XMLID_590_" class="st0" d="M508.2,51.1h27.3v8.2H517v7.5h17.4v8.2H517V83h19.4v8.2h-28.3V51.1z"/>
	<path id="XMLID_588_" class="st0" d="M550.5,51.1h12L579.6,79h0.1V51.1h8.8v40.1H577l-17.5-28.6h-0.1v28.6h-8.8V51.1z"/>
	<path id="XMLID_585_" class="st0" d="M599.5,71.1c0-3.2,0.5-6.1,1.6-8.7c1.1-2.6,2.6-4.8,4.5-6.7c1.9-1.8,4.2-3.2,6.9-4.2
		c2.6-1,5.5-1.5,8.7-1.5c3.1,0,6,0.5,8.7,1.5c2.6,1,4.9,2.4,6.9,4.2c1.9,1.8,3.4,4.1,4.5,6.7c1.1,2.6,1.6,5.5,1.6,8.7
		c0,3.2-0.5,6.1-1.6,8.7c-1.1,2.6-2.6,4.8-4.5,6.7c-1.9,1.8-4.2,3.2-6.9,4.2c-2.6,1-5.5,1.5-8.7,1.5c-3.1,0-6-0.5-8.7-1.5
		c-2.6-1-4.9-2.4-6.9-4.2c-1.9-1.8-3.4-4.1-4.5-6.7C600,77.3,599.5,74.3,599.5,71.1z M608.7,71.1c0,1.9,0.3,3.6,0.9,5.2
		c0.6,1.6,1.4,2.9,2.5,4.1c1.1,1.2,2.4,2.1,3.9,2.7c1.5,0.6,3.2,1,5.1,1c1.9,0,3.6-0.3,5.1-1c1.5-0.6,2.8-1.5,3.9-2.7
		c1.1-1.2,1.9-2.5,2.5-4.1c0.6-1.6,0.9-3.3,0.9-5.2c0-1.9-0.3-3.6-0.9-5.2c-0.6-1.6-1.4-3-2.5-4.1c-1.1-1.2-2.4-2.1-3.9-2.7
		c-1.5-0.6-3.2-1-5.1-1c-1.9,0-3.6,0.3-5.1,1c-1.5,0.6-2.8,1.5-3.9,2.7c-1.1,1.2-1.9,2.5-2.5,4.1C609,67.6,608.7,69.3,608.7,71.1z"
		/>
	<path id="XMLID_583_" class="st0" d="M661.5,58.9h-11.5v-7.8h31.8v7.8h-11.5v32.3h-8.8V58.9z"/>
	<g id="XMLID_573_">
		<path id="XMLID_580_" class="st3" d="M462.1,62.8l-4,4c1.5,1.5,2.5,3.7,2.5,6c0,4.7-3.8,8.5-8.5,8.5c-1.2,0-2.4-0.3-3.4-0.7
			l-2.3,5.2c1.7,0.8,3.7,1.2,5.7,1.2c7.8,0,14.2-6.3,14.2-14.2C466.2,68.9,464.6,65.4,462.1,62.8z"/>
		<path id="XMLID_578_" class="st4" d="M452.1,87c-7.8,0-14.2-6.3-14.2-14.2s6.3-14.2,14.2-14.2V53c-11,0-19.8,8.9-19.8,19.8
			s8.9,19.8,19.8,19.8V87z"/>
		<path id="XMLID_577_" class="st5" d="M433.5,66c2.8-7.6,10.1-13,18.6-13c11,0,19.8,8.9,19.8,19.8c0,2.3-0.4,4.5-1.1,6.5l5.4,1.9
			c0.9-2.6,1.4-5.5,1.4-8.4c0-14.1-11.4-25.5-25.5-25.5c-11,0-20.4,7-24,16.8L433.5,66z"/>
		<path id="XMLID_576_" class="st3" d="M470.2,90.8c-4.6,4.7-11,7.6-18.1,7.6c-14.1,0-25.5-11.4-25.5-25.5h-5.7
			c0,17.2,14,31.2,31.2,31.2c8.7,0,16.5-3.5,22.2-9.3L470.2,90.8z"/>
		<path id="XMLID_575_" class="st4" d="M452.1,36v5.7c17.2,0,31.2,14,31.2,31.2s-14,31.2-31.2,31.2v5.7c20.4,0,36.9-16.5,36.9-36.9
			S472.4,36,452.1,36z"/>
		<path id="XMLID_574_" class="st5" d="M431.1,42.5c5.9-4.1,13.2-6.5,20.9-6.5v-5.7c-9,0-17.3,2.8-24.2,7.5L431.1,42.5z"/>
	</g>
</g>
<g id="XMLID_335_">
	<path id="XMLID_408_" class="st3" d="M-152.8,429.9l-4,4c1.5,1.5,2.5,3.7,2.5,6c0,4.7-3.8,8.5-8.5,8.5c-1.2,0-2.4-0.3-3.4-0.7
		l-2.3,5.2c1.7,0.8,3.7,1.2,5.7,1.2c7.8,0,14.2-6.3,14.2-14.2C-148.7,436-150.3,432.4-152.8,429.9z"/>
	<path id="XMLID_406_" class="st4" d="M-162.9,454.1c-7.8,0-14.2-6.3-14.2-14.2s6.3-14.2,14.2-14.2V420c-11,0-19.8,8.9-19.8,19.8
		s8.9,19.8,19.8,19.8V454.1z"/>
	<path id="XMLID_405_" class="st5" d="M-181.5,433.1c2.8-7.6,10.1-13,18.6-13c11,0,19.8,8.9,19.8,19.8c0,2.3-0.4,4.5-1.1,6.5
		l5.4,1.9c0.9-2.6,1.4-5.5,1.4-8.4c0-14.1-11.4-25.5-25.5-25.5c-11,0-20.4,7-24,16.8L-181.5,433.1z"/>
	<path id="XMLID_404_" class="st3" d="M-144.7,457.8c-4.6,4.7-11,7.6-18.1,7.6c-14.1,0-25.5-11.4-25.5-25.5h-5.7
		c0,17.2,14,31.2,31.2,31.2c8.7,0,16.5-3.5,22.2-9.3L-144.7,457.8z"/>
	<path id="XMLID_403_" class="st4" d="M-162.9,403v5.7c17.2,0,31.2,14,31.2,31.2s-14,31.2-31.2,31.2v5.7c20.4,0,36.9-16.5,36.9-36.9
		S-142.5,403-162.9,403z"/>
	<path id="XMLID_402_" class="st5" d="M-183.8,409.6c5.9-4.1,13.2-6.5,20.9-6.5v-5.7c-9,0-17.3,2.8-24.2,7.5L-183.8,409.6z"/>
</g>
<g id="XMLID_45_">
	<path id="XMLID_193_" class="st0" d="M117.3,228h27.3v8.2h-18.4v7.5h17.4v8.2h-17.4v8.2h19.4v8.2h-28.3V228z"/>
	<path id="XMLID_191_" class="st0" d="M159.6,228h12l17.1,27.9h0.1V228h8.8v40.1h-11.6l-17.5-28.6h-0.1v28.6h-8.8V228z"/>
	<path id="XMLID_147_" class="st0" d="M208.6,248.1c0-3.2,0.5-6.1,1.6-8.7s2.6-4.8,4.5-6.7c1.9-1.8,4.2-3.2,6.9-4.2
		c2.6-1,5.5-1.5,8.7-1.5c3.1,0,6,0.5,8.7,1.5c2.6,1,4.9,2.4,6.9,4.2c1.9,1.8,3.4,4.1,4.5,6.7s1.6,5.5,1.6,8.7c0,3.2-0.5,6.1-1.6,8.7
		c-1.1,2.6-2.6,4.8-4.5,6.7c-1.9,1.8-4.2,3.2-6.9,4.2c-2.6,1-5.5,1.5-8.7,1.5c-3.1,0-6-0.5-8.7-1.5c-2.6-1-4.9-2.4-6.9-4.2
		c-1.9-1.8-3.4-4.1-4.5-6.7C209.1,254.2,208.6,251.3,208.6,248.1z M217.8,248.1c0,1.9,0.3,3.6,0.9,5.2c0.6,1.6,1.4,2.9,2.5,4.1
		c1.1,1.2,2.4,2.1,3.9,2.7c1.5,0.6,3.2,1,5.1,1c1.9,0,3.6-0.3,5.1-1c1.5-0.6,2.8-1.5,3.9-2.7c1.1-1.2,1.9-2.5,2.5-4.1
		c0.6-1.6,0.9-3.3,0.9-5.2c0-1.9-0.3-3.6-0.9-5.2c-0.6-1.6-1.4-3-2.5-4.1c-1.1-1.2-2.4-2.1-3.9-2.7c-1.5-0.6-3.2-1-5.1-1
		c-1.9,0-3.6,0.3-5.1,1c-1.5,0.6-2.8,1.5-3.9,2.7c-1.1,1.2-1.9,2.5-2.5,4.1C218.1,244.5,217.8,246.2,217.8,248.1z"/>
	<path id="XMLID_145_" class="st0" d="M270.6,235.8h-11.5V228h31.8v7.8h-11.5v32.3h-8.8V235.8z"/>
	<g id="XMLID_135_">
		<path id="XMLID_142_" class="st3" d="M71.2,247.8l-4,4c1.5,1.5,2.5,3.7,2.5,6c0,4.7-3.8,8.5-8.5,8.5c-1.2,0-2.4-0.3-3.4-0.7
			l-2.3,5.2c1.7,0.8,3.7,1.2,5.7,1.2c7.8,0,14.2-6.3,14.2-14.2C75.3,253.9,73.7,250.3,71.2,247.8z"/>
		<path id="XMLID_140_" class="st4" d="M61.1,272c-7.8,0-14.2-6.3-14.2-14.2s6.3-14.2,14.2-14.2v-5.7c-11,0-19.8,8.9-19.8,19.8
			s8.9,19.8,19.8,19.8V272z"/>
		<path id="XMLID_139_" class="st5" d="M42.5,251c2.8-7.6,10.1-13,18.6-13c11,0,19.8,8.9,19.8,19.8c0,2.3-0.4,4.5-1.1,6.5l5.4,1.9
			c0.9-2.6,1.4-5.5,1.4-8.4c0-14.1-11.4-25.5-25.5-25.5c-11,0-20.4,7-24,16.8L42.5,251z"/>
		<path id="XMLID_138_" class="st3" d="M79.3,275.7c-4.6,4.7-11,7.6-18.1,7.6c-14.1,0-25.5-11.4-25.5-25.5h-5.7
			c0,17.2,14,31.2,31.2,31.2c8.7,0,16.5-3.5,22.2-9.3L79.3,275.7z"/>
		<path id="XMLID_137_" class="st4" d="M61.1,220.9v5.7c17.2,0,31.2,14,31.2,31.2S78.3,289,61.1,289v5.7c20.4,0,36.9-16.5,36.9-36.9
			S81.5,220.9,61.1,220.9z"/>
		<path id="XMLID_136_" class="st5" d="M40.2,227.5c5.9-4.1,13.2-6.5,20.9-6.5v-5.7c-9,0-17.3,2.8-24.2,7.5L40.2,227.5z"/>
	</g>
	<g id="XMLID_54_" class="st6">
		<path id="XMLID_131_" class="st4" d="M123.4,281.1c0,1-0.3,1.7-0.9,2.2c-0.6,0.5-1.5,0.8-2.7,0.8h-1v3.4h-1.5v-9.2h2.7
			c1.2,0,2,0.2,2.6,0.7C123.1,279.4,123.4,280.1,123.4,281.1z M118.8,282.8h0.8c0.8,0,1.3-0.1,1.7-0.4c0.4-0.3,0.5-0.7,0.5-1.3
			c0-0.5-0.2-0.9-0.5-1.2c-0.3-0.3-0.8-0.4-1.5-0.4h-1V282.8z"/>
		<path id="XMLID_112_" class="st4" d="M132.7,287.5l-0.9-2.6h-3.5l-0.9,2.6h-1.6l3.5-9.3h1.6l3.4,9.3H132.7z M131.4,283.6l-0.9-2.5
			c-0.1-0.2-0.1-0.4-0.3-0.8c-0.1-0.4-0.2-0.6-0.2-0.8c-0.1,0.5-0.3,1.1-0.5,1.7l-0.8,2.4H131.4z"/>
		<path id="XMLID_108_" class="st4" d="M143.6,284.7c0,1.8-1.2,2.8-3.6,2.8h-2.7v-9.2h5.6v1.3h-4.1v2.5h1.1
			C142.4,282,143.6,282.9,143.6,284.7z M138.9,286.2h1.1c0.7,0,1.3-0.1,1.6-0.4c0.3-0.2,0.5-0.6,0.5-1.2c0-0.5-0.2-0.9-0.5-1.1
			c-0.3-0.2-0.9-0.3-1.8-0.3h-0.9V286.2z"/>
		<path id="XMLID_105_" class="st4" d="M155.4,282.9c0,1.5-0.4,2.7-1.1,3.5c-0.7,0.8-1.8,1.2-3.2,1.2c-1.4,0-2.5-0.4-3.2-1.2
			c-0.7-0.8-1.1-2-1.1-3.5c0-1.5,0.4-2.7,1.1-3.5c0.7-0.8,1.8-1.2,3.2-1.2c1.4,0,2.4,0.4,3.2,1.2
			C155.1,280.2,155.4,281.4,155.4,282.9z M148.4,282.9c0,1.1,0.2,2,0.7,2.6c0.5,0.6,1.1,0.9,2,0.9c0.9,0,1.6-0.3,2-0.9
			c0.5-0.6,0.7-1.4,0.7-2.6c0-1.1-0.2-2-0.7-2.6c-0.5-0.6-1.1-0.9-2-0.9c-0.9,0-1.6,0.3-2,0.9C148.6,280.9,148.4,281.7,148.4,282.9z
			"/>
		<path id="XMLID_103_" class="st4" d="M162.4,287.5h-1.5v-7.9h-2.7v-1.3h6.9v1.3h-2.7V287.5z"/>
		<path id="XMLID_99_" class="st4" d="M174.1,287.5l-0.9-2.6h-3.5l-0.9,2.6h-1.6l3.5-9.3h1.6l3.4,9.3H174.1z M172.7,283.6l-0.9-2.5
			c-0.1-0.2-0.2-0.4-0.3-0.8c-0.1-0.4-0.2-0.6-0.2-0.8c-0.1,0.5-0.3,1.1-0.5,1.7l-0.8,2.4H172.7z"/>
		<path id="XMLID_96_" class="st4" d="M178.7,278.3h1.4v4.8c0,0.5,0,1,0,1.5c0,0.5,0,0.9-0.1,1h0.1l4.7-7.3h1.8v9.2h-1.4v-4.8
			c0-0.7,0-1.6,0.1-2.6h-0.1l-4.7,7.4h-1.8V278.3z M182.6,277.5c-0.9,0-1.5-0.2-2-0.5c-0.4-0.3-0.6-0.9-0.7-1.6h1.3
			c0,0.3,0.1,0.5,0.2,0.7c0.1,0.2,0.2,0.3,0.4,0.4c0.2,0.1,0.4,0.1,0.8,0.1c0.4,0,0.7-0.1,0.9-0.3c0.2-0.2,0.3-0.5,0.4-0.9h1.4
			c-0.1,0.7-0.3,1.3-0.8,1.6C184.2,277.4,183.5,277.5,182.6,277.5z"/>
		<path id="XMLID_94_" class="st4" d="M203,287.5h-1.5v-7.9h-4.1v7.9h-1.5v-9.2h7.1V287.5z"/>
		<path id="XMLID_90_" class="st4" d="M215.4,282.9c0,1.5-0.4,2.7-1.1,3.5c-0.7,0.8-1.8,1.2-3.2,1.2c-1.4,0-2.5-0.4-3.2-1.2
			c-0.7-0.8-1.1-2-1.1-3.5c0-1.5,0.4-2.7,1.1-3.5c0.7-0.8,1.8-1.2,3.2-1.2c1.4,0,2.4,0.4,3.2,1.2C215,280.2,215.4,281.4,215.4,282.9
			z M208.4,282.9c0,1.1,0.2,2,0.7,2.6c0.5,0.6,1.1,0.9,2,0.9c0.9,0,1.6-0.3,2-0.9c0.5-0.6,0.7-1.4,0.7-2.6c0-1.1-0.2-2-0.7-2.6
			c-0.5-0.6-1.1-0.9-2-0.9c-0.9,0-1.6,0.3-2,0.9C208.6,280.9,208.4,281.7,208.4,282.9z"/>
		<path id="XMLID_82_" class="st4" d="M218.4,284.7v-1.3h3.2v1.3H218.4z"/>
		<path id="XMLID_69_" class="st4" d="M232.4,287.5h-1.5v-4.2h-4.3v4.2h-1.5v-9.2h1.5v3.8h4.3v-3.8h1.5V287.5z"/>
		<path id="XMLID_66_" class="st4" d="M244.9,282.9c0,1.5-0.4,2.7-1.1,3.5c-0.7,0.8-1.8,1.2-3.2,1.2c-1.4,0-2.5-0.4-3.2-1.2
			c-0.7-0.8-1.1-2-1.1-3.5c0-1.5,0.4-2.7,1.1-3.5c0.7-0.8,1.8-1.2,3.2-1.2c1.4,0,2.4,0.4,3.2,1.2
			C244.5,280.2,244.9,281.4,244.9,282.9z M237.8,282.9c0,1.1,0.2,2,0.7,2.6c0.5,0.6,1.1,0.9,2,0.9c0.9,0,1.6-0.3,2-0.9
			c0.5-0.6,0.7-1.4,0.7-2.6c0-1.1-0.2-2-0.7-2.6c-0.5-0.6-1.1-0.9-2-0.9c-0.9,0-1.6,0.3-2,0.9C238.1,280.9,237.8,281.7,237.8,282.9z
			"/>
		<path id="XMLID_62_" class="st4" d="M248.7,278.3h2.7c1.3,0,2.2,0.2,2.8,0.6c0.6,0.4,0.8,1,0.8,1.8c0,0.5-0.1,1-0.4,1.3
			c-0.3,0.4-0.7,0.6-1.2,0.7v0.1c0.6,0.1,1.1,0.4,1.4,0.7c0.3,0.4,0.5,0.8,0.5,1.5c0,0.8-0.3,1.5-0.9,1.9s-1.4,0.7-2.4,0.7h-3.3
			V278.3z M250.2,282.1h1.5c0.6,0,1.1-0.1,1.4-0.3c0.3-0.2,0.4-0.5,0.4-1c0-0.4-0.2-0.7-0.5-0.9c-0.3-0.2-0.8-0.3-1.5-0.3h-1.3
			V282.1z M250.2,283.3v2.9h1.6c0.6,0,1.1-0.1,1.4-0.4c0.3-0.2,0.5-0.6,0.5-1.1c0-0.5-0.2-0.8-0.5-1.1c-0.3-0.2-0.8-0.3-1.5-0.3
			H250.2z"/>
		<path id="XMLID_59_" class="st4" d="M267.2,282.9c0,1.5-0.4,2.7-1.1,3.5c-0.7,0.8-1.8,1.2-3.2,1.2c-1.4,0-2.5-0.4-3.2-1.2
			c-0.7-0.8-1.1-2-1.1-3.5c0-1.5,0.4-2.7,1.1-3.5c0.7-0.8,1.8-1.2,3.2-1.2c1.4,0,2.4,0.4,3.2,1.2
			C266.8,280.2,267.2,281.4,267.2,282.9z M260.1,282.9c0,1.1,0.2,2,0.7,2.6c0.5,0.6,1.1,0.9,2,0.9c0.9,0,1.6-0.3,2-0.9
			c0.5-0.6,0.7-1.4,0.7-2.6c0-1.1-0.2-2-0.7-2.6c-0.5-0.6-1.1-0.9-2-0.9c-0.9,0-1.6,0.3-2,0.9C260.4,280.9,260.1,281.7,260.1,282.9z
			"/>
		<path id="XMLID_57_" class="st4" d="M275,287.5l-2.7-7.7h-0.1c0.1,1.1,0.1,2.2,0.1,3.2v4.5H271v-9.2h2.1l2.6,7.3h0l2.6-7.3h2.1
			v9.2H279v-4.6c0-0.5,0-1.1,0-1.8c0-0.7,0-1.2,0.1-1.3h-0.1l-2.8,7.7H275z"/>
		<path id="XMLID_55_" class="st4" d="M291.7,278.3l-2.9,6.6c-0.4,0.8-0.7,1.4-1,1.7c-0.3,0.4-0.6,0.6-1,0.8
			c-0.4,0.2-0.9,0.3-1.4,0.3c-0.5,0-0.9-0.1-1.4-0.2v-1.4c0.4,0.2,0.8,0.2,1.3,0.2c0.4,0,0.7-0.1,1-0.3c0.3-0.2,0.5-0.5,0.7-1
			l-3.4-6.8h1.6l2.3,4.6c0.2,0.4,0.3,0.7,0.4,0.9h0.1c0-0.1,0.1-0.3,0.2-0.5l2.1-5H291.7z"/>
	</g>
</g>
<g id="XMLID_549_">
	<path id="XMLID_555_" class="st0" d="M-292.8,429.9l-4,4c1.5,1.5,2.5,3.7,2.5,6c0,4.7-3.8,8.5-8.5,8.5c-1.2,0-2.4-0.3-3.4-0.7
		l-2.3,5.2c1.7,0.8,3.7,1.2,5.7,1.2c7.8,0,14.2-6.3,14.2-14.2C-288.7,436-290.3,432.4-292.8,429.9z"/>
	<path id="XMLID_554_" class="st1" d="M-302.9,454.1c-7.8,0-14.2-6.3-14.2-14.2s6.3-14.2,14.2-14.2V420c-11,0-19.8,8.9-19.8,19.8
		s8.9,19.8,19.8,19.8V454.1z"/>
	<path id="XMLID_553_" class="st2" d="M-321.5,433.1c2.8-7.6,10.1-13,18.6-13c11,0,19.8,8.9,19.8,19.8c0,2.3-0.4,4.5-1.1,6.5
		l5.4,1.9c0.9-2.6,1.4-5.5,1.4-8.4c0-14.1-11.4-25.5-25.5-25.5c-11,0-20.4,7-24,16.8L-321.5,433.1z"/>
	<path id="XMLID_552_" class="st0" d="M-284.7,457.8c-4.6,4.7-11,7.6-18.1,7.6c-14.1,0-25.5-11.4-25.5-25.5h-5.7
		c0,17.2,14,31.2,31.2,31.2c8.7,0,16.5-3.5,22.2-9.3L-284.7,457.8z"/>
	<path id="XMLID_551_" class="st1" d="M-302.9,403v5.7c17.2,0,31.2,14,31.2,31.2s-14,31.2-31.2,31.2v5.7c20.4,0,36.9-16.5,36.9-36.9
		S-282.5,403-302.9,403z"/>
	<path id="XMLID_550_" class="st2" d="M-323.8,409.6c5.9-4.1,13.2-6.5,20.9-6.5v-5.7c-9,0-17.3,2.8-24.2,7.5L-323.8,409.6z"/>
</g>
<rect id="XMLID_630_" x="427.9" y="137.4" class="st3" width="34.1" height="10.5"/>
<rect id="XMLID_632_" x="427.9" y="159.4" class="st5" width="34.1" height="10.5"/>
<rect id="XMLID_633_" x="427.9" y="181.3" class="st4" width="34.1" height="10.5"/>
<rect id="XMLID_636_" x="427.9" y="203.3" class="st0" width="34.1" height="10.5"/>
<text id="XMLID_638_" transform="matrix(1 0 0 1 474.4625 146.1201)" style="font-family:'MyriadPro-Regular'; font-size:10px;">0E6FAA</text>
<text id="XMLID_639_" transform="matrix(1 0 0 1 474.4625 168.1201)" style="font-family:'MyriadPro-Regular'; font-size:10px;">50BCDA</text>
<text id="XMLID_640_" transform="matrix(1 0 0 1 474.4625 190.3701)" style="font-family:'MyriadPro-Regular'; font-size:10px;">99A7BC</text>
<text id="XMLID_644_" transform="matrix(1 0 0 1 517.4625 146.1201)" style="font-family:'MyriadPro-Regular'; font-size:10px;">R:14 G:111 B:170</text>
<text id="XMLID_637_" transform="matrix(1 0 0 1 602.7125 146.1201)" style="font-family:'MyriadPro-Regular'; font-size:10px;">C:89 M:53 Y:10 K:0</text>
<text id="XMLID_645_" transform="matrix(1 0 0 1 602.7125 168.1201)" style="font-family:'MyriadPro-Regular'; font-size:10px;">C:61 M:5 Y:10 K:0</text>
<text id="XMLID_646_" transform="matrix(1 0 0 1 602.7125 190.3701)" style="font-family:'MyriadPro-Regular'; font-size:10px;">C:42 M:28 Y:16 K:0</text>
<text id="XMLID_643_" transform="matrix(1 0 0 1 517.4625 168.1201)" style="font-family:'MyriadPro-Regular'; font-size:10px;">R:80 G:188 B:218</text>
<text id="XMLID_642_" transform="matrix(1 0 0 1 517.4625 190.3701)" style="font-family:'MyriadPro-Regular'; font-size:10px;">R:153 G:167 B:288</text>
<text id="XMLID_648_" transform="matrix(1 0 0 1 602.7125 212.8701)" style="font-family:'MyriadPro-Regular'; font-size:10px;">C:74 M:63 Y:61 K:59</text>
<text id="XMLID_647_" transform="matrix(1 0 0 1 517.4625 212.8701)" style="font-family:'MyriadPro-Regular'; font-size:10px;">R:43 G:49 B:51</text>
<text id="XMLID_641_" transform="matrix(1 0 0 1 474.4625 212.8701)" style="font-family:'MyriadPro-Regular'; font-size:10px;">2B3133</text>
<rect id="XMLID_188_" x="427.9" y="364.8" class="st2" width="34.1" height="10.5"/>
<rect id="XMLID_187_" x="427.9" y="386.8" class="st1" width="34.1" height="10.5"/>
<rect id="XMLID_185_" x="427.9" y="408.8" class="st0" width="34.1" height="10.5"/>
<text id="XMLID_184_" transform="matrix(1 0 0 1 474.4625 373.5757)" style="font-family:'MyriadPro-Regular'; font-size:10px;">BCBCBC</text>
<text id="XMLID_183_" transform="matrix(1 0 0 1 474.4625 395.8257)" style="font-family:'MyriadPro-Regular'; font-size:10px;">99A7BC</text>
<text id="XMLID_182_" transform="matrix(1 0 0 1 602.7125 373.5757)" style="font-family:'MyriadPro-Regular'; font-size:10px;">C:27 M:21 Y:21 K:0</text>
<text id="XMLID_181_" transform="matrix(1 0 0 1 602.7125 395.8257)" style="font-family:'MyriadPro-Regular'; font-size:10px;">C:42 M:28 Y:16 K:0</text>
<text id="XMLID_180_" transform="matrix(1 0 0 1 517.4625 373.5757)" style="font-family:'MyriadPro-Regular'; font-size:10px;">R:188 G:188 B:188</text>
<text id="XMLID_179_" transform="matrix(1 0 0 1 517.4625 395.8257)" style="font-family:'MyriadPro-Regular'; font-size:10px;">R:117 G:117 B:117</text>
<text id="XMLID_148_" transform="matrix(1 0 0 1 602.7125 418.3257)" style="font-family:'MyriadPro-Regular'; font-size:10px;">C:74 M:63 Y:61 K:59</text>
<text id="XMLID_134_" transform="matrix(1 0 0 1 517.4625 418.3257)" style="font-family:'MyriadPro-Regular'; font-size:10px;">R:43 G:49 B:51</text>
<text id="XMLID_93_" transform="matrix(1 0 0 1 474.4625 418.3257)" style="font-family:'MyriadPro-Regular'; font-size:10px;">2B3133</text>
</svg>
