<svg width="2249" height="765" viewBox="0 0 2249 765" fill="none" xmlns="http://www.w3.org/2000/svg">
<path d="M91.493 389.793C103.131 389.793 111.735 387.108 117.305 381.736C122.875 376.365 125.66 368.855 125.66 359.207C125.66 350.752 122.378 343.789 115.813 338.319C109.248 332.848 99.351 330.112 86.1217 330.112C77.5675 330.112 70.0079 331.406 63.4431 333.992C56.9777 336.478 51.8053 339.811 47.9261 343.988L43.45 370.994H11.0732V329.963C19.528 320.016 30.5192 311.96 44.0468 305.793C57.5745 299.626 72.5941 296.542 89.1058 296.542C113.774 296.542 133.269 301.913 147.593 312.656C161.916 323.398 169.078 338.716 169.078 358.61C169.078 368.557 166.094 377.658 160.126 385.914C154.158 394.17 145.952 400.635 135.508 405.31C147.444 409.587 156.595 416.053 162.961 424.706C169.327 433.261 172.51 443.705 172.51 456.039C172.51 476.032 164.801 491.698 149.383 503.037C133.966 514.377 113.873 520.046 89.1058 520.046C67.3223 520.046 48.4732 514.725 32.5583 504.082C16.6434 493.439 8.93468 477.922 9.43202 457.531L9.73043 456.636H52.1037C52.1037 465.09 55.5354 472.202 62.3986 477.971C69.3614 483.741 78.2638 486.625 89.1058 486.625C101.34 486.625 111.038 483.741 118.2 477.971C125.362 472.103 128.943 464.643 128.943 455.591C128.943 444.152 125.809 435.797 119.543 430.525C113.276 425.154 103.926 422.468 91.493 422.468H65.0843V389.793H91.493ZM262.031 505.574L285.306 501.098V490.057H284.262C257.007 490.057 234.876 482.746 217.867 468.124C200.858 453.403 192.353 433.907 192.353 409.637C192.353 384.969 200.858 365.075 217.867 349.956C234.975 334.738 257.107 327.128 284.262 327.128H285.306V315.491L262.031 311.015V286.844H285.306H328.724H351.999V311.015L328.724 315.491V327.128H329.171C356.326 327.128 378.458 334.688 395.566 349.807C412.675 364.827 421.229 384.671 421.229 409.339C421.229 433.609 412.625 453.154 395.417 467.975C378.309 482.696 356.227 490.057 329.171 490.057H328.724V501.098L351.999 505.574V529.744H262.031V505.574ZM284.262 357.118C268.944 357.118 256.908 361.694 248.155 370.845C239.402 379.896 235.025 392.827 235.025 409.637C235.025 425.95 239.402 438.433 248.155 447.087C256.908 455.74 268.944 460.067 284.262 460.067H285.306V357.118H284.262ZM328.724 357.118V460.067H329.47C344.688 460.067 356.674 455.691 365.427 446.937C374.181 438.085 378.557 425.552 378.557 409.339C378.557 392.529 374.181 379.647 365.427 370.695C356.674 361.644 344.688 357.118 329.47 357.118H328.724ZM633.841 409.935C633.841 441.765 624.74 468.074 606.537 488.863C588.335 509.652 564.512 520.046 535.07 520.046C505.727 520.046 482.004 509.652 463.901 488.863C445.897 468.074 436.895 441.765 436.895 409.935V406.653C436.895 375.022 445.897 348.763 463.901 327.874C481.904 306.986 505.578 296.542 534.921 296.542C564.363 296.542 588.186 306.986 606.388 327.874C624.69 348.763 633.841 375.022 633.841 406.653V409.935ZM590.424 406.355C590.424 383.875 585.749 365.622 576.399 351.598C567.049 337.573 553.223 330.56 534.921 330.56C516.619 330.56 502.942 337.523 493.89 351.448C484.938 365.374 480.462 383.676 480.462 406.355V409.935C480.462 432.813 484.988 451.264 494.039 465.289C503.19 479.215 516.867 486.178 535.07 486.178C553.471 486.178 567.297 479.215 576.548 465.289C585.798 451.264 590.424 432.813 590.424 409.935V406.355Z" fill="black"/>
<path d="M994.773 180.016C1007.21 180.016 1016.36 177.657 1022.22 172.938C1028.09 168.22 1031.02 161.557 1031.02 152.949C1031.02 144.405 1027.9 137.519 1021.65 132.29C1015.46 127.062 1006.09 124.448 993.529 124.448C985.687 124.448 978.8 125.818 972.87 128.56C966.941 131.238 962.158 134.777 958.524 139.177L956.898 159.262H948.003V135.829C952.275 129.835 958.46 124.83 966.558 120.813C974.72 116.732 983.997 114.692 994.39 114.692C1009.25 114.692 1020.98 118.039 1029.59 124.734C1038.19 131.429 1042.5 140.962 1042.5 153.332C1042.5 160.282 1040.27 166.562 1035.8 172.173C1031.4 177.721 1025.28 181.865 1017.44 184.607C1026.37 187.094 1033.13 191.174 1037.72 196.849C1042.31 202.524 1044.6 209.633 1044.6 218.178C1044.6 230.611 1039.95 240.367 1030.64 247.444C1021.39 254.458 1009.31 257.965 994.39 257.965C981.319 257.965 970.001 254.522 960.437 247.636C950.873 240.749 946.25 230.834 946.569 217.891L946.76 217.317H957.376C957.376 226.243 960.819 233.64 967.706 239.506C974.592 245.372 983.487 248.305 994.39 248.305C1006.57 248.305 1016.07 245.627 1022.89 240.271C1029.78 234.915 1033.22 227.678 1033.22 218.56C1033.22 208.677 1029.97 201.44 1023.47 196.849C1017.03 192.195 1007.46 189.867 994.773 189.867H978.131V180.016H994.773ZM1149.06 255.957C1148.29 252.45 1147.75 249.421 1147.43 246.87C1147.11 244.32 1146.95 241.738 1146.95 239.123C1143.13 244.543 1138.03 249.038 1131.65 252.609C1125.27 256.18 1118.1 257.965 1110.13 257.965C1099.99 257.965 1092.15 255.351 1086.6 250.122C1081.05 244.894 1078.28 237.816 1078.28 228.89C1078.28 219.325 1082.39 211.738 1090.62 206.127C1098.84 200.516 1110 197.71 1124.09 197.71H1146.95V184.033C1146.95 176.637 1144.56 170.834 1139.78 166.626C1135.06 162.418 1128.43 160.314 1119.89 160.314C1114.15 160.314 1108.89 161.111 1104.1 162.705C1099.39 164.235 1095.43 166.339 1092.24 169.017L1091.29 182.885H1081.82L1081.91 162.992C1086.7 159.293 1092.4 156.297 1099.03 154.001C1105.73 151.706 1112.84 150.558 1120.36 150.558C1131.78 150.558 1140.96 153.459 1147.91 159.262C1154.86 165.064 1158.33 173.385 1158.33 184.224V235.106C1158.33 237.211 1158.37 239.251 1158.43 241.228C1158.56 243.14 1158.78 245.021 1159.1 246.87L1169.43 247.54V255.957H1149.06ZM1111.37 247.827C1119.66 247.827 1126.96 245.914 1133.28 242.088C1139.59 238.263 1144.15 233.321 1146.95 227.264V206.509H1123.9C1113.51 206.509 1105.19 208.677 1098.94 213.013C1092.75 217.285 1089.66 222.705 1089.66 229.272C1089.66 234.819 1091.57 239.315 1095.4 242.758C1099.29 246.137 1104.61 247.827 1111.37 247.827ZM1269.67 239.889H1270.25L1311.09 152.471H1325.24H1340.83V160.983L1325.24 162.226V246.297L1340.83 247.54V255.957H1298.18V247.54L1313.76 246.297V172.652L1313.19 172.46L1274.07 255.957H1265.94L1225.96 170.356L1225.39 170.452V246.297L1240.98 247.54V255.957H1198.42V247.54L1214.01 246.297V162.226L1198.42 160.983V152.471H1214.01H1228.93L1269.67 239.889ZM1419.56 257.965C1406.55 257.965 1395.77 253.215 1387.23 243.714C1378.69 234.15 1374.41 222.003 1374.41 207.274V202.014C1374.41 187.221 1378.65 174.947 1387.13 165.191C1395.68 155.436 1405.98 150.558 1418.03 150.558C1430.72 150.558 1440.69 154.575 1447.96 162.609C1455.23 170.643 1458.87 181.355 1458.87 194.745V204.501H1385.8V207.274C1385.8 218.879 1388.89 228.635 1395.07 236.541C1401.32 244.384 1409.48 248.305 1419.56 248.305C1426.63 248.305 1432.69 247.317 1437.73 245.34C1442.77 243.364 1447.07 240.526 1450.64 236.828L1455.52 244.671C1451.63 248.751 1446.72 252.003 1440.79 254.426C1434.86 256.785 1427.78 257.965 1419.56 257.965ZM1418.03 160.314C1409.61 160.314 1402.5 163.565 1396.7 170.069C1390.96 176.509 1387.61 184.607 1386.66 194.362L1386.85 194.841H1447.49V191.971C1447.49 182.981 1444.84 175.457 1439.55 169.4C1434.25 163.342 1427.08 160.314 1418.03 160.314ZM1492.07 160.983V152.471H1534.63V160.983L1519.04 162.226V198.858H1574.8V162.226L1559.21 160.983V152.471H1574.8H1586.27H1601.86V160.983L1586.27 162.226V246.297L1601.86 247.54V255.957H1559.21V247.54L1574.8 246.297V208.518H1519.04V246.297L1534.63 247.54V255.957H1492.07V247.54L1507.66 246.297V162.226L1492.07 160.983ZM1707.47 255.957C1706.7 252.45 1706.16 249.421 1705.84 246.87C1705.52 244.32 1705.36 241.738 1705.36 239.123C1701.54 244.543 1696.43 249.038 1690.06 252.609C1683.68 256.18 1676.51 257.965 1668.54 257.965C1658.4 257.965 1650.56 255.351 1645.01 250.122C1639.46 244.894 1636.69 237.816 1636.69 228.89C1636.69 219.325 1640.8 211.738 1649.03 206.127C1657.25 200.516 1668.41 197.71 1682.5 197.71H1705.36V184.033C1705.36 176.637 1702.97 170.834 1698.19 166.626C1693.47 162.418 1686.84 160.314 1678.29 160.314C1672.56 160.314 1667.3 161.111 1662.51 162.705C1657.79 164.235 1653.84 166.339 1650.65 169.017L1649.7 182.885H1640.23L1640.32 162.992C1645.11 159.293 1650.81 156.297 1657.44 154.001C1664.14 151.706 1671.25 150.558 1678.77 150.558C1690.19 150.558 1699.37 153.459 1706.32 159.262C1713.27 165.064 1716.74 173.385 1716.74 184.224V235.106C1716.74 237.211 1716.77 239.251 1716.84 241.228C1716.97 243.14 1717.19 245.021 1717.51 246.87L1727.84 247.54V255.957H1707.47ZM1669.78 247.827C1678.07 247.827 1685.37 245.914 1691.68 242.088C1698 238.263 1702.56 233.321 1705.36 227.264V206.509H1682.31C1671.92 206.509 1663.6 208.677 1657.35 213.013C1651.16 217.285 1648.07 222.705 1648.07 229.272C1648.07 234.819 1649.98 239.315 1653.81 242.758C1657.7 246.137 1663.02 247.827 1669.78 247.827ZM1003.86 466.602C986.898 466.602 973.094 461.564 962.445 451.49C951.861 441.352 946.569 428.568 946.569 413.137C946.569 397.771 951.893 385.018 962.541 374.88C973.189 364.678 986.962 359.577 1003.86 359.577H1006.44V346.857L990.851 345.518V337.101H1033.51V345.518L1017.92 346.857V359.577H1020.5C1037.4 359.577 1051.17 364.646 1061.82 374.784C1072.53 384.859 1077.89 397.579 1077.89 412.946C1077.89 428.376 1072.53 441.192 1061.82 451.394C1051.11 461.533 1037.33 466.602 1020.5 466.602H1017.92V479.8L1033.51 481.139V489.556H990.851V481.139L1006.44 479.8V466.602H1003.86ZM1017.92 369.237V456.846H1020.69C1034.78 456.846 1045.91 452.797 1054.07 444.699C1062.3 436.602 1066.41 426.017 1066.41 412.946C1066.41 400.066 1062.3 389.577 1054.07 381.479C1045.91 373.318 1034.78 369.237 1020.69 369.237H1017.92ZM1003.86 369.237C989.64 369.237 978.45 373.318 970.288 381.479C962.127 389.641 958.046 400.194 958.046 413.137C958.046 426.208 962.095 436.761 970.192 444.795C978.354 452.829 989.576 456.846 1003.86 456.846H1006.44V369.237H1003.86ZM1178.71 482.957C1177.94 479.45 1177.4 476.421 1177.08 473.87C1176.76 471.32 1176.6 468.738 1176.6 466.123C1172.78 471.543 1167.67 476.038 1161.3 479.609C1154.92 483.18 1147.75 484.965 1139.78 484.965C1129.64 484.965 1121.8 482.351 1116.25 477.122C1110.7 471.894 1107.93 464.816 1107.93 455.89C1107.93 446.325 1112.04 438.738 1120.27 433.127C1128.49 427.516 1139.65 424.71 1153.74 424.71H1176.6V411.033C1176.6 403.637 1174.21 397.834 1169.43 393.626C1164.71 389.418 1158.08 387.314 1149.53 387.314C1143.8 387.314 1138.54 388.111 1133.75 389.705C1129.03 391.235 1125.08 393.339 1121.89 396.017L1120.94 409.885H1111.47L1111.56 389.992C1116.35 386.293 1122.05 383.297 1128.68 381.001C1135.38 378.706 1142.49 377.558 1150.01 377.558C1161.43 377.558 1170.61 380.459 1177.56 386.262C1184.51 392.064 1187.98 400.385 1187.98 411.224V462.106C1187.98 464.211 1188.01 466.251 1188.08 468.228C1188.21 470.14 1188.43 472.021 1188.75 473.87L1199.08 474.54V482.957H1178.71ZM1141.02 474.827C1149.31 474.827 1156.61 472.914 1162.92 469.088C1169.24 465.263 1173.8 460.321 1176.6 454.264V433.509H1153.55C1143.16 433.509 1134.84 435.677 1128.59 440.013C1122.4 444.285 1119.31 449.705 1119.31 456.272C1119.31 461.819 1121.22 466.315 1125.05 469.758C1128.94 473.137 1134.26 474.827 1141.02 474.827ZM1272.26 475.305C1279.84 475.305 1286.54 473.137 1292.34 468.801C1298.14 464.466 1301.04 458.44 1301.04 450.725H1311.18L1311.37 451.299C1311.69 460.863 1307.87 468.865 1299.9 475.305C1291.99 481.745 1282.78 484.965 1272.26 484.965C1258.23 484.965 1247.36 480.151 1239.64 470.523C1231.93 460.831 1228.07 448.398 1228.07 433.222V429.205C1228.07 414.157 1231.93 401.788 1239.64 392.096C1247.36 382.404 1258.2 377.558 1272.16 377.558C1280.13 377.558 1287.43 379.056 1294.06 382.053C1300.69 385.05 1306.08 389.131 1310.23 394.296L1310.7 416.867H1300.95L1299.13 398.504C1296.07 395.061 1292.25 392.351 1287.65 390.374C1283.13 388.334 1277.96 387.314 1272.16 387.314C1261.07 387.314 1252.84 391.299 1247.48 399.269C1242.19 407.175 1239.55 417.154 1239.55 429.205V433.222C1239.55 445.465 1242.19 455.539 1247.48 463.445C1252.78 471.352 1261.03 475.305 1272.26 475.305ZM1416.88 482.957C1416.11 479.45 1415.57 476.421 1415.25 473.87C1414.93 471.32 1414.78 468.738 1414.78 466.123C1410.95 471.543 1405.85 476.038 1399.47 479.609C1393.1 483.18 1385.92 484.965 1377.95 484.965C1367.81 484.965 1359.97 482.351 1354.42 477.122C1348.88 471.894 1346.1 464.816 1346.1 455.89C1346.1 446.325 1350.22 438.738 1358.44 433.127C1366.67 427.516 1377.83 424.71 1391.92 424.71H1414.78V411.033C1414.78 403.637 1412.38 397.834 1407.6 393.626C1402.88 389.418 1396.25 387.314 1387.71 387.314C1381.97 387.314 1376.71 388.111 1371.93 389.705C1367.21 391.235 1363.26 393.339 1360.07 396.017L1359.11 409.885H1349.64L1349.74 389.992C1354.52 386.293 1360.23 383.297 1366.86 381.001C1373.55 378.706 1380.66 377.558 1388.19 377.558C1399.6 377.558 1408.78 380.459 1415.73 386.262C1422.68 392.064 1426.16 400.385 1426.16 411.224V462.106C1426.16 464.211 1426.19 466.251 1426.25 468.228C1426.38 470.14 1426.6 472.021 1426.92 473.87L1437.25 474.54V482.957H1416.88ZM1379.2 474.827C1387.49 474.827 1394.79 472.914 1401.1 469.088C1407.41 465.263 1411.97 460.321 1414.78 454.264V433.509H1391.73C1381.33 433.509 1373.01 435.677 1366.76 440.013C1360.58 444.285 1357.49 449.705 1357.49 456.272C1357.49 461.819 1359.4 466.315 1363.22 469.758C1367.11 473.137 1372.44 474.827 1379.2 474.827ZM1470.74 473.297C1476.22 466.41 1480.59 459.205 1483.84 451.681C1487.09 444.094 1489.07 432.489 1489.77 416.867L1491.01 389.226L1475.9 387.983V379.471H1568.2V387.983L1552.61 389.226V473.297H1563.32L1562.46 513.371H1551.94V482.957H1474.18V513.371H1464.04L1463.28 473.297H1470.74ZM1501.15 416.867C1500.58 430.385 1498.76 441.703 1495.7 450.821C1492.64 459.938 1488.72 467.431 1483.94 473.297H1541.13V390.183H1502.4L1501.15 416.867ZM1601.21 387.983V379.471H1643.77V387.983L1628.18 389.226V425.858H1683.94V389.226L1668.35 387.983V379.471H1683.94H1695.41H1711V387.983L1695.41 389.226V473.297L1711 474.54V482.957H1668.35V474.54L1683.94 473.297V435.518H1628.18V473.297L1643.77 474.54V482.957H1601.21V474.54L1616.8 473.297V389.226L1601.21 387.983ZM1745.16 429.683C1745.16 414.444 1749.34 401.947 1757.69 392.191C1766.04 382.436 1777.11 377.558 1790.88 377.558C1804.71 377.558 1815.81 382.436 1824.16 392.191C1832.51 401.947 1836.69 414.444 1836.69 429.683V432.84C1836.69 448.143 1832.51 460.672 1824.16 470.427C1815.87 480.119 1804.84 484.965 1791.07 484.965C1777.17 484.965 1766.04 480.119 1757.69 470.427C1749.34 460.672 1745.16 448.143 1745.16 432.84V429.683ZM1756.64 432.84C1756.64 444.827 1759.67 454.901 1765.72 463.063C1771.78 471.224 1780.23 475.305 1791.07 475.305C1801.72 475.305 1810.07 471.224 1816.13 463.063C1822.18 454.901 1825.21 444.827 1825.21 432.84V429.683C1825.21 417.887 1822.15 407.877 1816.03 399.652C1809.97 391.426 1801.59 387.314 1790.88 387.314C1780.17 387.314 1771.78 391.426 1765.72 399.652C1759.67 407.877 1756.64 417.887 1756.64 429.683V432.84ZM1881.27 389.226L1865.68 387.983V379.471H1945.07V381.192H1946.5V401.756H1938.08L1937.22 389.322H1892.65V473.297L1908.24 474.54V482.957H1865.68V474.54L1881.27 473.297V389.226ZM1977.4 429.683C1977.4 414.444 1981.58 401.947 1989.93 392.191C1998.29 382.436 2009.35 377.558 2023.12 377.558C2036.96 377.558 2048.05 382.436 2056.41 392.191C2064.76 401.947 2068.93 414.444 2068.93 429.683V432.84C2068.93 448.143 2064.76 460.672 2056.41 470.427C2048.12 480.119 2037.09 484.965 2023.31 484.965C2009.41 484.965 1998.29 480.119 1989.93 470.427C1981.58 460.672 1977.4 448.143 1977.4 432.84V429.683ZM1988.88 432.84C1988.88 444.827 1991.91 454.901 1997.97 463.063C2004.02 471.224 2012.47 475.305 2023.31 475.305C2033.96 475.305 2042.31 471.224 2048.37 463.063C2054.43 454.901 2057.46 444.827 2057.46 432.84V429.683C2057.46 417.887 2054.4 407.877 2048.28 399.652C2042.22 391.426 2033.83 387.314 2023.12 387.314C2012.41 387.314 2004.02 391.426 1997.97 399.652C1991.91 407.877 1988.88 417.887 1988.88 429.683V432.84ZM1069.09 641.285C1069.09 662.199 1063.51 679.223 1052.35 692.358C1041.19 705.429 1026.69 711.965 1008.83 711.965C991.234 711.965 976.919 705.398 965.889 692.263C954.921 679.128 949.438 662.135 949.438 641.285V639.468C949.438 618.618 954.921 601.625 965.889 588.49C976.856 575.291 991.138 568.692 1008.74 568.692C1026.59 568.692 1041.1 575.291 1052.25 588.49C1063.48 601.625 1069.09 618.618 1069.09 639.468V641.285ZM1057.61 639.276C1057.61 621.232 1053.21 606.63 1044.41 595.472C1035.61 584.314 1023.72 578.734 1008.74 578.734C994.008 578.734 982.339 584.314 973.731 595.472C965.187 606.63 960.915 621.232 960.915 639.276V641.285C960.915 659.457 965.219 674.122 973.827 685.281C982.435 696.439 994.103 702.018 1008.83 702.018C1023.94 702.018 1035.84 696.471 1044.51 685.376C1053.24 674.218 1057.61 659.521 1057.61 641.285V639.276ZM1145.9 702.305C1153.49 702.305 1160.18 700.137 1165.99 695.801C1171.79 691.466 1174.69 685.44 1174.69 677.725H1184.83L1185.02 678.299C1185.34 687.863 1181.51 695.865 1173.54 702.305C1165.63 708.745 1156.42 711.965 1145.9 711.965C1131.87 711.965 1121 707.151 1113.29 697.523C1105.57 687.831 1101.71 675.398 1101.71 660.222V656.205C1101.71 641.157 1105.57 628.788 1113.29 619.096C1121 609.404 1131.84 604.558 1145.8 604.558C1153.77 604.558 1161.08 606.056 1167.71 609.053C1174.34 612.05 1179.73 616.131 1183.87 621.296L1184.35 643.867H1174.59L1172.78 625.504C1169.72 622.061 1165.89 619.351 1161.3 617.374C1156.77 615.334 1151.61 614.314 1145.8 614.314C1134.71 614.314 1126.48 618.299 1121.13 626.269C1115.84 634.175 1113.19 644.154 1113.19 656.205V660.222C1113.19 672.465 1115.84 682.539 1121.13 690.445C1126.42 698.352 1134.68 702.305 1145.9 702.305ZM1308.41 606.471V635.833H1298.27L1297.41 616.226H1268.14V700.297L1283.73 701.54V709.957H1241.17V701.54L1256.76 700.297V616.226H1228.83L1228.07 635.833H1217.83V606.471H1308.41ZM1377.86 711.965C1364.85 711.965 1354.07 707.215 1345.53 697.714C1336.99 688.15 1332.71 676.003 1332.71 661.274V656.014C1332.71 641.221 1336.95 628.947 1345.43 619.191C1353.98 609.436 1364.28 604.558 1376.33 604.558C1389.02 604.558 1398.99 608.575 1406.26 616.609C1413.53 624.643 1417.17 635.355 1417.17 648.745V658.501H1344.1V661.274C1344.1 672.879 1347.19 682.635 1353.37 690.541C1359.62 698.384 1367.78 702.305 1377.86 702.305C1384.93 702.305 1390.99 701.317 1396.03 699.34C1401.07 697.364 1405.37 694.526 1408.94 690.828L1413.82 698.671C1409.93 702.751 1405.02 706.003 1399.09 708.426C1393.16 710.785 1386.08 711.965 1377.86 711.965ZM1376.33 614.314C1367.91 614.314 1360.8 617.565 1355 624.069C1349.26 630.509 1345.91 638.607 1344.96 648.362L1345.15 648.841H1405.78V645.971C1405.78 636.981 1403.14 629.457 1397.85 623.4C1392.55 617.342 1385.38 614.314 1376.33 614.314ZM1450.37 614.983V606.471H1493.02V614.983L1477.43 616.226V652.379H1492.74L1518.08 620.148C1522.35 614.664 1526.18 610.775 1529.56 608.479C1533 606.184 1536.76 605.036 1540.84 605.036C1542.88 605.036 1544.73 605.355 1546.39 605.993C1548.11 606.567 1549.87 607.395 1551.65 608.479L1549.17 616.896C1548.02 616.513 1546.93 616.195 1545.91 615.94C1544.96 615.684 1543.84 615.557 1542.57 615.557C1539.76 615.557 1537.21 616.354 1534.91 617.948C1532.62 619.542 1529.97 622.22 1526.98 625.982L1502.87 656.492L1541.8 700.392L1555.38 701.54V709.957H1535.2L1493.31 662.518H1477.43V700.297L1493.02 701.54V709.957H1450.37V701.54L1465.96 700.297V616.226L1450.37 614.983ZM1614.79 616.322V652.188C1614.79 672.465 1612.4 687.162 1607.61 696.28C1602.9 705.398 1594.93 709.957 1583.7 709.957H1579.59L1579.69 699.723L1583.32 699.627C1590.33 699.627 1595.4 696.12 1598.53 689.106C1601.72 682.029 1603.31 669.723 1603.31 652.188V616.226L1587.72 614.983V606.471H1685.66V614.983L1670.07 616.226V700.297L1685.66 701.54V709.957H1643V701.54L1658.59 700.297V616.322H1614.79ZM1764.38 711.965C1751.38 711.965 1740.6 707.215 1732.06 697.714C1723.51 688.15 1719.24 676.003 1719.24 661.274V656.014C1719.24 641.221 1723.48 628.947 1731.96 619.191C1740.51 609.436 1750.8 604.558 1762.85 604.558C1775.54 604.558 1785.52 608.575 1792.79 616.609C1800.06 624.643 1803.69 635.355 1803.69 648.745V658.501H1730.62V661.274C1730.62 672.879 1733.72 682.635 1739.9 690.541C1746.15 698.384 1754.31 702.305 1764.38 702.305C1771.46 702.305 1777.52 701.317 1782.56 699.34C1787.59 697.364 1791.9 694.526 1795.47 690.828L1800.35 698.671C1796.46 702.751 1791.55 706.003 1785.62 708.426C1779.69 710.785 1772.61 711.965 1764.38 711.965ZM1762.85 614.314C1754.44 614.314 1747.33 617.565 1741.53 624.069C1735.79 630.509 1732.44 638.607 1731.48 648.362L1731.67 648.841H1792.31V645.971C1792.31 636.981 1789.67 629.457 1784.37 623.4C1779.08 617.342 1771.91 614.314 1762.85 614.314ZM1836.89 614.983V606.471H1879.45V614.983L1863.86 616.226V652.858H1919.62V616.226L1904.03 614.983V606.471H1919.62H1931.1H1946.69V614.983L1931.1 616.226V700.297L1946.69 701.54V709.957H1904.03V701.54L1919.62 700.297V662.518H1863.86V700.297L1879.45 701.54V709.957H1836.89V701.54L1852.48 700.297V616.226L1836.89 614.983ZM2023.41 606.471V614.983L2007.82 616.226V690.828L2008.39 690.924L2063.67 606.471H2075.15H2090.74V614.983L2075.15 616.226V700.297L2090.74 701.54V709.957H2048.08V701.54L2063.67 700.297V625.504L2063.1 625.313L2007.82 709.957H1980.85V701.54L1996.44 700.297V616.226L1980.85 614.983V606.471H2007.82H2023.41ZM2166.41 668.256L2141.16 709.957H2121.74V701.54L2134.17 700.584L2154.64 666.917C2147.5 665.004 2141.99 661.434 2138.1 656.205C2134.21 650.977 2132.26 644.696 2132.26 637.364C2132.26 628.309 2135.51 620.913 2142.02 615.174C2148.58 609.372 2157.7 606.471 2169.37 606.471H2225.7V614.983L2210.12 616.226V700.297L2225.7 701.54V709.957H2183.05V701.54L2198.64 700.297V668.256H2166.41ZM2143.74 637.555C2143.74 643.421 2145.59 648.394 2149.29 652.475C2153.05 656.492 2158.69 658.501 2166.22 658.501H2198.64V616.226H2169.37C2160.83 616.226 2154.42 618.299 2150.15 622.443C2145.87 626.524 2143.74 631.561 2143.74 637.555Z" fill="black"/>
<rect x="808.344" y="0.478271" width="21.8261" height="763.913" fill="black"/>
</svg>
